<svg width="24.000000" height="24.000000" viewBox="0 0 24 24" fill="none" xmlns="http://www.w3.org/2000/svg" xmlns:xlink="http://www.w3.org/1999/xlink">
	<desc>
			Created with Pixso.
	</desc>
	<defs>
		<clipPath id="clip101_3131">
			<rect width="24.000000" height="24.000000" fill="white" fill-opacity="0"/>
		</clipPath>
	</defs>
	<g clip-path="url(#clip101_3131)">
		<path d="M20.39 20.37L18.29 20.37L18.29 20.74C18.29 21.34 17.82 21.83 17.25 21.83C16.67 21.83 16.2 21.34 16.2 20.74L16.2 20.37L7.8 20.37L7.8 20.74C7.8 21.34 7.32 21.83 6.75 21.83C6.17 21.83 5.69 21.34 5.69 20.74L5.69 20.37L3.6 20.37C2.82 20.37 1.5 18.99 1.5 18.19L1.5 10.17C1.5 9.37 2.12 8.72 2.89 8.72L4.29 8.72C5.07 8.72 5.69 9.37 5.69 10.17L5.69 16L18.29 16L18.29 10.17C18.29 9.37 18.92 8.72 19.69 8.72L21.09 8.72C21.86 8.72 22.49 9.37 22.49 10.17L22.49 18.19C22.5 18.99 21.17 20.37 20.39 20.37ZM19 7.26C17.84 7.26 16.9 8.24 16.9 9.44L16.9 14.55L7.09 14.55L7.09 9.44C7.09 8.24 6.15 7.26 4.99 7.26C4.75 7.26 4.51 7.18 4.29 7.26L4.29 4.34C4.29 3.14 5.23 2.16 6.39 2.16L17.59 2.16C18.75 2.16 19.69 3.14 19.69 4.34L19.69 7.26C19.47 7.18 19.24 7.26 19 7.26Z" fill="#DD4737" fill-opacity="1.000000" fill-rule="nonzero"/>
	</g>
</svg>
