<svg width="22.000000" height="22.000000" viewBox="0 0 22 22" fill="none" xmlns="http://www.w3.org/2000/svg" xmlns:xlink="http://www.w3.org/1999/xlink">
	<desc>
			Created with Pixso.
	</desc>
	<defs>
		<clipPath id="clip101_3134">
			<rect width="22.000000" height="22.000000" fill="white" fill-opacity="0"/>
		</clipPath>
	</defs>
	<g clip-path="url(#clip101_3134)">
		<path d="M11 2.06C14.41 2.06 17.18 4.83 17.18 8.25C17.18 9.69 16.68 11.06 15.8 12.14L15.74 12.22L15.83 12.28C16.1 12.46 16.35 12.66 16.6 12.88C16.84 13.1 17.08 13.32 17.29 13.57C17.51 13.81 17.72 14.06 17.91 14.33C18.09 14.6 18.27 14.87 18.43 15.16C18.58 15.44 18.72 15.74 18.85 16.04C18.97 16.34 19.07 16.65 19.16 16.97C19.25 17.28 19.32 17.6 19.37 17.92C19.42 18.24 19.45 18.57 19.47 18.89L19.47 19.07L19.47 19.24C19.47 19.28 19.47 19.33 19.46 19.37C19.45 19.42 19.44 19.46 19.42 19.5C19.41 19.55 19.39 19.59 19.36 19.62C19.34 19.66 19.31 19.7 19.28 19.73C19.24 19.76 19.21 19.79 19.17 19.82C19.13 19.84 19.09 19.86 19.05 19.88C19.01 19.9 18.97 19.91 18.92 19.92C18.88 19.93 18.83 19.93 18.79 19.93L3.2 19.93C3.16 19.93 3.11 19.93 3.07 19.92C3.02 19.91 2.98 19.9 2.94 19.88C2.9 19.86 2.86 19.84 2.82 19.82C2.78 19.79 2.75 19.76 2.72 19.73C2.69 19.7 2.66 19.66 2.63 19.63C2.61 19.59 2.59 19.55 2.57 19.51C2.55 19.47 2.54 19.42 2.53 19.38C2.52 19.33 2.52 19.29 2.52 19.25C2.52 16.42 3.91 13.84 6.16 12.28L6.25 12.22L6.19 12.14C5.98 11.88 5.79 11.6 5.62 11.31C5.45 11.02 5.31 10.71 5.19 10.39C5.07 10.08 4.98 9.75 4.92 9.42C4.86 9.09 4.82 8.76 4.81 8.42L4.81 8.25C4.81 4.83 7.58 2.06 11 2.06Z" fill="#000000" fill-opacity="0.400000" fill-rule="nonzero"/>
	</g>
</svg>
