<svg width="40.000000" height="40.000000" viewBox="0 0 40 40" fill="none" xmlns="http://www.w3.org/2000/svg" xmlns:xlink="http://www.w3.org/1999/xlink">
	<desc>
			Created with Pixso.
	</desc>
	<defs/>
	<rect rx="20.000000" width="40.000000" height="40.000000" fill="#000000" fill-opacity="0.047059"/>
	<path d="M9.02 12.73L9 12.75C8.43 12.75 8 12.31 8 11.75C8 11.18 8.43 10.75 9 10.75L9.02 10.77L9.02 12.73ZM30.98 10.77L31 10.75C31.56 10.75 32 11.18 32 11.75C32 12.31 31.56 12.75 31 12.75L30.98 12.73L30.98 10.77Z" fill="#000000" fill-opacity="0" fill-rule="nonzero"/>
	<path d="M9 11.75L31 11.75" stroke="#191919" stroke-opacity="1.000000" stroke-width="2.000000" stroke-linejoin="round" stroke-linecap="round"/>
	<path d="M9.02 21.23L9 21.25C8.43 21.25 8 20.81 8 20.25C8 19.68 8.43 19.25 9 19.25L9.02 19.27L9.02 21.23ZM30.98 19.27L31 19.25C31.56 19.25 32 19.68 32 20.25C32 20.81 31.56 21.25 31 21.25L30.98 21.23L30.98 19.27Z" fill="#000000" fill-opacity="0" fill-rule="nonzero"/>
	<path d="M9 20.25L31 20.25" stroke="#191919" stroke-opacity="1.000000" stroke-width="2.000000" stroke-linejoin="round" stroke-linecap="round"/>
	<path d="M9.02 29.73L9 29.75C8.43 29.75 8 29.31 8 28.75C8 28.18 8.43 27.75 9 27.75L9.02 27.77L9.02 29.73ZM30.98 27.77L31 27.75C31.56 27.75 32 28.18 32 28.75C32 29.31 31.56 29.75 31 29.75L30.98 29.73L30.98 27.77Z" fill="#000000" fill-opacity="0" fill-rule="nonzero"/>
	<path d="M9 28.75L31 28.75" stroke="#191919" stroke-opacity="1.000000" stroke-width="2.000000" stroke-linejoin="round" stroke-linecap="round"/>
</svg>
