<svg width="40.000000" height="40.000000" viewBox="0 0 40 40" fill="none" xmlns="http://www.w3.org/2000/svg" xmlns:xlink="http://www.w3.org/1999/xlink">
	<desc>
			Created with Pixso.
	</desc>
	<defs/>
	<rect rx="20.000000" width="40.000000" height="40.000000" fill="#000000" fill-opacity="0.047059"/>
	<path d="M28.33 21.62C28.15 22.3 27.89 22.96 27.55 23.6C27.36 23.97 27.49 24.42 27.86 24.61C28.24 24.81 28.68 24.67 28.88 24.3C29.27 23.55 29.57 22.78 29.78 21.99C30.02 21.09 30.14 20.15 30.14 19.19C30.14 17.68 29.87 16.28 29.34 14.99C28.8 13.7 28 12.52 26.93 11.45C25.87 10.38 24.69 9.58 23.4 9.05C22.11 8.51 20.7 8.25 19.19 8.25C16.17 8.25 13.59 9.31 11.45 11.45C10.38 12.52 9.58 13.7 9.05 14.99C8.51 16.28 8.25 17.68 8.25 19.19C8.25 22.21 9.31 24.8 11.45 26.93C12.52 28 13.7 28.8 14.99 29.34C16.28 29.87 17.68 30.14 19.19 30.14C20.72 30.14 22.14 29.87 23.45 29.32C24.5 28.87 25.49 28.25 26.39 27.45L30.21 31.27C30.51 31.57 30.97 31.57 31.27 31.27C31.57 30.97 31.57 30.51 31.27 30.21L26.94 25.87C26.59 25.52 26.23 25.52 25.88 25.87C24.97 26.78 23.97 27.47 22.87 27.93C21.74 28.4 20.52 28.64 19.19 28.64C16.58 28.64 14.36 27.72 12.51 25.87C11.59 24.95 10.9 23.94 10.44 22.82C9.98 21.71 9.75 20.5 9.75 19.19C9.75 17.89 9.98 16.68 10.44 15.57C10.9 14.45 11.59 13.43 12.51 12.51C13.43 11.59 14.45 10.9 15.57 10.44C16.68 9.98 17.89 9.75 19.19 9.75C20.5 9.75 21.71 9.98 22.82 10.44C23.94 10.9 24.95 11.59 25.87 12.51C26.8 13.43 27.49 14.45 27.95 15.57C28.41 16.68 28.64 17.89 28.64 19.19C28.64 20.03 28.54 20.84 28.33 21.62Z" fill="#191919" fill-opacity="1.000000" fill-rule="evenodd"/>
</svg>
